<svg xmlns="http://www.w3.org/2000/svg" viewBox="0 0 345 400">
  <path d="M 128,48 L 128,79 L 135,80 L 146,85 L 152,92 L 156,105 L 156,138 L 151,167 L 143,196 L 135,214 L 122,233 L 106,248 L 81,262 L 56,268 L 50,268 L 48,270 L 40,289 L 37,318 L 75,319 L 112,327 L 131,335 L 156,353 L 188,353 L 213,335 L 223,330 L 246,323 L 278,318 L 306,318 L 304,290 L 295,269 L 266,263 L 248,255 L 236,247 L 217,227 L 201,197 L 193,169 L 189,147 L 187,112 L 190,96 L 193,90 L 201,83 L 215,79 L 215,48 Z M 104,17 L 104,111 L 130,112 L 130,140 L 125,167 L 111,202 L 92,223 L 69,236 L 49,242 L 36,243 L 27,254 L 19,270 L 15,284 L 13,347 L 71,350 L 96,355 L 111,360 L 129,370 L 146,386 L 197,386 L 208,375 L 225,364 L 259,352 L 283,349 L 330,348 L 329,285 L 318,256 L 309,244 L 272,235 L 248,220 L 231,199 L 217,161 L 213,130 L 214,112 L 240,111 L 240,17 Z" fill="#0E1E40" fill-rule="evenodd"></path>
</svg>